<?xml version="1.0" encoding="utf-8" ?>
<svg xmlns="http://www.w3.org/2000/svg" xmlns:xlink="http://www.w3.org/1999/xlink" width="512" height="512">
	<path d="M245.64 0.866942C256.542 0.56904 267.467 0.599094 278.339 1.57409Q280.94 1.80872 283.535 2.09649Q286.131 2.38426 288.72 2.72504Q291.309 3.06582 293.89 3.45948Q296.471 3.85314 299.044 4.2995Q301.617 4.74586 304.18 5.24475Q306.744 5.74363 309.296 6.29483Q311.849 6.84603 314.389 7.44931Q316.93 8.05259 319.458 8.7077Q321.986 9.36281 324.5 10.0695Q327.013 10.7761 329.512 11.5341Q332.011 12.292 334.494 13.1009Q336.977 13.9097 339.443 14.7692Q341.909 15.6287 344.356 16.5384Q346.804 17.4481 349.233 18.4077Q351.661 19.3673 354.07 20.3763Q356.478 21.3854 358.866 22.4435Q361.253 23.5016 363.618 24.6083Q365.983 25.715 368.326 26.8698Q370.668 28.0246 372.986 29.2271Q375.304 30.4296 377.596 31.6792Q379.889 32.9288 382.156 34.2251Q384.423 35.5213 386.663 36.8637Q388.903 38.206 391.115 39.5939Q393.327 40.9818 395.51 42.4146Q397.693 43.8474 399.846 45.3245Q402 46.8017 404.122 48.3226Q406.245 49.8435 408.336 51.4074Q410.428 52.9714 412.486 54.5778Q414.545 56.1842 416.57 57.8324Q418.596 59.4806 420.587 61.1698Q422.579 62.8591 424.535 64.5887Q426.491 66.3183 428.412 68.0876Q430.703 70.1915 432.941 72.3507Q435.179 74.51 437.364 76.7234Q439.549 78.9368 441.679 81.2031Q443.809 83.4693 445.883 85.787Q447.957 88.1046 449.974 90.4724Q451.99 92.8401 453.948 95.2565Q455.906 97.6728 457.805 100.136Q459.703 102.6 461.54 105.109Q463.378 107.619 465.153 110.172Q466.929 112.726 468.641 115.322Q470.354 117.918 472.002 120.555Q473.651 123.193 475.234 125.869Q476.818 128.546 478.335 131.261Q479.852 133.976 481.303 136.727Q482.753 139.478 484.136 142.264Q485.519 145.05 486.833 147.869Q488.147 150.688 489.392 153.538Q490.637 156.388 491.812 159.268Q492.986 162.147 494.09 165.055Q495.194 167.963 496.226 170.896Q497.259 173.83 498.219 176.788Q499.179 179.747 500.067 182.727Q500.954 185.708 501.769 188.71Q502.583 191.711 503.324 194.732Q504.064 197.753 504.731 200.79Q505.398 203.828 505.99 206.882Q506.581 209.935 507.099 213.002Q507.616 216.069 508.057 219.147Q508.499 222.226 508.866 225.314Q509.232 228.403 509.523 231.499Q509.813 234.596 510.028 237.698Q510.243 240.801 510.382 243.908Q510.531 247.063 510.602 250.221Q510.673 253.379 510.666 256.538Q510.658 259.697 510.572 262.854Q510.486 266.012 510.322 269.166Q510.157 272.321 509.914 275.47Q509.671 278.619 509.35 281.762Q509.029 284.904 508.63 288.038Q508.231 291.171 507.754 294.294Q507.277 297.416 506.723 300.526Q506.169 303.636 505.537 306.731Q504.906 309.826 504.198 312.904Q503.489 315.982 502.705 319.042Q501.92 322.102 501.06 325.141Q500.2 328.18 499.264 331.197Q498.329 334.214 497.319 337.207Q496.308 340.2 495.224 343.167Q494.14 346.134 492.982 349.073Q491.824 352.012 490.594 354.921Q489.363 357.83 488.061 360.708Q486.759 363.586 485.385 366.43Q484.012 369.275 482.568 372.084Q481.124 374.894 479.611 377.666Q478.098 380.439 476.516 383.173Q474.935 385.908 473.286 388.602Q471.637 391.296 469.921 393.948Q468.206 396.6 466.425 399.209Q464.644 401.818 462.799 404.382Q460.953 406.946 459.045 409.463Q457.137 411.98 455.166 414.449Q453.196 416.918 451.165 419.337Q449.134 421.756 447.043 424.124Q444.953 426.492 442.804 428.807Q440.684 431.106 438.507 433.352Q436.331 435.599 434.1 437.79Q431.869 439.982 429.584 442.119Q427.3 444.255 424.964 446.335Q422.628 448.414 420.241 450.435Q417.854 452.457 415.418 454.419Q412.983 456.381 410.499 458.282Q408.016 460.183 405.487 462.023Q402.957 463.863 400.383 465.64Q397.81 467.416 395.193 469.129Q392.576 470.842 389.918 472.49Q387.259 474.138 384.561 475.72Q381.863 477.302 379.127 478.817Q376.391 480.332 373.618 481.78Q370.846 483.227 368.038 484.606Q365.231 485.984 362.39 487.293Q359.55 488.602 356.678 489.841Q353.806 491.08 350.905 492.248Q348.003 493.415 345.074 494.511Q342.144 495.607 339.189 496.63Q336.234 497.654 333.254 498.604Q330.274 499.555 327.272 500.431Q324.27 501.308 321.247 502.11Q318.224 502.913 315.182 503.641Q312.14 504.369 309.081 505.021Q306.023 505.674 302.949 506.251Q299.875 506.829 296.788 507.33Q293.7 507.831 290.602 508.257Q287.503 508.682 284.395 509.031Q281.287 509.379 278.171 509.652Q275.055 509.924 271.934 510.119Q268.812 510.315 265.687 510.433L258.154 510.613C192.188 512.041 126.751 485.133 79.3094 439.68Q77.4132 437.868 75.5547 436.017Q73.6963 434.166 71.8764 432.277Q70.0565 430.388 68.276 428.462Q66.4955 426.536 64.755 424.574Q63.0146 422.611 61.3151 420.613Q59.6155 418.616 57.9575 416.583Q56.2996 414.551 54.6839 412.484Q53.0682 410.418 51.4954 408.319Q49.9227 406.22 48.3936 404.089Q46.8645 401.957 45.3797 399.795Q43.8949 397.633 42.455 395.441Q41.0151 393.248 39.6208 391.026Q38.2264 388.805 36.8782 386.555Q35.53 384.305 34.2285 382.028Q32.9269 379.75 31.6727 377.447Q30.4184 375.143 29.2119 372.814Q28.0055 370.485 26.8473 368.132Q25.6891 365.778 24.5797 363.401Q23.4704 361.025 22.4102 358.625Q21.3501 356.226 20.3397 353.806Q19.3294 351.385 18.3691 348.944Q17.4089 346.503 16.4992 344.043Q15.5895 341.583 14.7308 339.105Q13.872 336.626 13.0646 334.131Q12.2572 331.635 11.5014 329.123Q10.7456 326.612 10.0418 324.085Q9.338 321.558 8.68648 319.017Q8.03495 316.477 7.43598 313.923Q6.83701 311.369 6.29084 308.804Q5.74467 306.238 5.25155 303.662Q4.75842 301.086 4.31855 298.5Q3.87867 295.914 3.49223 293.32C1.79599 281.785 1.09659 270.344 0.859374 258.696Q0.814508 255.611 0.844697 252.525Q0.874886 249.44 0.980112 246.356Q1.08534 243.273 1.26554 240.192Q1.44574 237.112 1.70081 234.037Q1.95588 230.962 2.28567 227.894Q2.61546 224.826 3.01977 221.767Q3.42408 218.709 3.90268 215.66Q4.38127 212.612 4.93387 209.577Q5.48646 206.541 6.11273 203.52Q6.739 200.498 7.43857 197.493Q8.13814 194.488 8.9106 191.501Q9.68305 188.513 10.5279 185.546Q11.3728 182.578 12.2897 179.632Q13.2065 176.686 14.1947 173.763Q15.1829 170.84 16.2419 167.942Q17.3009 165.044 18.4301 162.172Q19.5593 159.301 20.758 156.457Q21.9567 153.614 23.2242 150.801Q24.4917 147.988 25.8273 145.206Q27.1629 142.425 28.5657 139.677Q29.9685 136.929 31.4377 134.215Q32.907 131.502 34.4418 128.825Q35.9766 126.149 37.576 123.51Q39.1755 120.871 40.8387 118.272Q42.5018 115.673 44.2277 113.116Q45.9536 110.558 47.7412 108.043Q49.5288 105.528 51.377 103.057Q53.2252 100.587 55.133 98.1617Q57.0408 95.7366 59.007 93.3587Q60.9732 90.9807 62.9967 88.6513Q65.0201 86.3219 67.0996 84.0424Q69.1792 81.7629 71.3135 79.5347Q74.5218 76.1628 77.8517 72.9109Q81.1816 69.659 84.6285 66.5315Q88.0754 63.4039 91.6348 60.4049Q95.1941 57.4058 98.861 54.5394Q102.528 51.6729 106.298 48.9429Q110.067 46.2129 113.934 43.6231Q117.802 41.0332 121.761 38.5869Q125.721 36.1406 129.768 33.8412Q133.814 31.5418 137.943 29.3924Q142.071 27.243 146.275 25.2465Q150.48 23.25 154.755 21.409Q159.029 19.5681 163.369 17.8852Q167.708 16.2023 172.106 14.6797Q176.505 13.1571 180.956 11.7969Q185.407 10.4367 189.905 9.24065Q194.403 8.04463 198.942 7.0144C214.11 3.51356 230.061 1.17817 245.64 0.866942Z"/>
	<path fill="#353435" d="M374.339 437.8L374.598 437.501L373.86 436.555C374.266 435.273 395.489 420.38 398.574 415.613L398.832 415.208C399.5 415.361 399.849 416.32 400.664 416.655C402.118 418.039 410.256 428.577 410.82 430.123C409.409 428.424 407.725 425.386 405.932 424.232L405.351 424.198C404.907 424.717 404.924 424.928 404.812 425.614L404.74 425.385C404.435 426.081 404.08 425.862 403.662 426.423C402.945 427.385 401.683 427.966 400.847 428.91L400.531 428.969C400.439 429.071 400.347 429.174 400.253 429.275C399.065 430.546 397.31 431.592 395.924 432.667C393.264 434.73 381.725 443.696 380.57 445.395C381.538 446.616 385.501 451.023 385.671 452.161C383.026 449.66 376.429 440.942 374.339 437.8Z"/>
	<defs>
		<linearGradient id="gradient_0" gradientUnits="userSpaceOnUse" x1="343.53793" y1="278.54575" x2="343.46561" y2="260.81747">
			<stop offset="0" stop-color="#2C2C2C"/>
			<stop offset="1" stop-color="#4A4A4A"/>
		</linearGradient>
	</defs>
	<path fill="url(#gradient_0)" d="M326.551 259.842C326.807 260.629 326.859 261.113 327.477 261.679C329.682 261.917 332.027 261.416 334.258 261.421C340.429 261.434 355.331 262.52 360.421 260.722C360.444 260.714 360.468 260.714 360.492 260.71C360.665 266.29 360.516 271.926 360.519 277.514C360.522 283.823 360.655 290.164 360.436 296.468L360.245 296.653L360.336 296.995C360.124 292.568 360.228 288.091 360.23 283.659C360.231 281.893 360.395 280.104 360.224 278.346L359.86 278.07C358.368 278.813 350.034 278.988 348.299 278.635C347.844 278.542 347.893 278.491 347.494 278.585C347.426 278.601 347.364 278.634 347.299 278.658C346.837 278.481 346.665 278.445 346.17 278.539C345.197 278.724 328.228 278.647 327.884 278.533C327.547 278.421 327.237 278.302 326.888 278.211C326.577 279.536 326.859 281.263 326.865 282.653C326.879 285.819 326.663 289.01 326.746 292.168C326.793 293.962 327.163 295.83 327.094 297.611C327.073 298.17 327.089 298.439 326.795 298.924C326.313 293.811 326.5 288.524 326.505 283.383L326.551 259.842Z"/>
	<defs>
		<linearGradient id="gradient_1" gradientUnits="userSpaceOnUse" x1="343.69788" y1="209.54929" x2="343.51843" y2="182.95938">
			<stop offset="0" stop-color="#A1A0A1"/>
			<stop offset="1" stop-color="#CECECE"/>
		</linearGradient>
	</defs>
	<path fill="url(#gradient_1)" d="M326.575 175.574L326.856 175.991C326.957 178.066 326.166 181.753 327.429 183.365C330.536 184.224 334.777 183.275 338.001 183.163C342.652 183.001 347.334 183.211 351.988 183.195C354.401 183.187 357.196 182.829 359.569 183.074C359.919 183.11 360.202 183.241 360.518 183.383C360.516 191.707 360.682 200.064 360.509 208.384C356.472 210.742 342.024 209.376 336.592 209.372C334.567 209.371 332.63 209.657 330.623 209.773C329.568 209.833 327.632 209.035 327.239 210.175C327.076 210.648 326.923 210.884 326.535 211.214L326.575 175.574Z"/>
	<defs>
		<linearGradient id="gradient_2" gradientUnits="userSpaceOnUse" x1="386.86752" y1="425.86624" x2="368.69659" y2="403.57578">
			<stop offset="0" stop-color="#3D3D3E"/>
			<stop offset="1" stop-color="#6B6B6B"/>
		</linearGradient>
	</defs>
	<path fill="url(#gradient_2)" d="M381.865 392.291L394.16 408.093C396.286 410.809 398.949 413.676 400.664 416.655C399.849 416.32 399.5 415.361 398.832 415.208L398.574 415.613C395.489 420.38 374.266 435.273 373.86 436.555L374.598 437.501L374.339 437.8C372.625 436.382 370.447 432.918 369.016 431.064L355.857 413.984C356.685 413.784 357.4 413.606 358.102 413.103C361.115 410.946 381.464 394.814 381.865 392.291Z"/>
	<defs>
		<linearGradient id="gradient_3" gradientUnits="userSpaceOnUse" x1="369.65805" y1="403.63763" x2="351.27017" y2="381.08096">
			<stop offset="0" stop-color="#6A6A6A"/>
			<stop offset="1" stop-color="#989898"/>
		</linearGradient>
	</defs>
	<path fill="url(#gradient_3)" d="M364.337 369.748L381.865 392.291C381.464 394.814 361.115 410.946 358.102 413.103C357.4 413.606 356.685 413.784 355.857 413.984L338.6 391.675C339.254 391.087 340.234 390.959 340.976 390.447C344.578 387.961 363.617 373.153 364.337 369.748Z"/>
	<defs>
		<linearGradient id="gradient_4" gradientUnits="userSpaceOnUse" x1="343.91412" y1="183.3318" x2="343.28244" y2="153.65869">
			<stop offset="0" stop-color="#CECDCD"/>
			<stop offset="1" stop-color="white"/>
		</linearGradient>
	</defs>
	<path fill="url(#gradient_4)" d="M326.546 153.604C337.866 153.609 349.211 153.432 360.528 153.665L360.518 183.383C360.202 183.241 359.919 183.11 359.569 183.074C357.196 182.829 354.401 183.187 351.988 183.195C347.334 183.211 342.652 183.001 338.001 183.163C334.777 183.275 330.536 184.224 327.429 183.365C326.166 181.753 326.957 178.066 326.856 175.991L326.575 175.574Q326.504 164.589 326.546 153.604Z"/>
	<defs>
		<linearGradient id="gradient_5" gradientUnits="userSpaceOnUse" x1="352.35965" y1="381.20847" x2="328.13123" y2="351.39554">
			<stop offset="0" stop-color="#979797"/>
			<stop offset="1" stop-color="#D4D3D3"/>
		</linearGradient>
	</defs>
	<path fill="url(#gradient_5)" d="M328.482 323.705C329.97 325.085 331.219 327.041 332.474 328.656L340.473 338.964C348.408 349.195 356.706 359.296 364.337 369.748C363.617 373.153 344.578 387.961 340.976 390.447C340.234 390.959 339.254 391.087 338.6 391.675C326.458 376.509 314.55 360.985 302.845 345.475C304.603 346.09 314.002 359.209 316.15 361.738L316.163 361.724L316.546 361.623C318.409 359.445 320.73 357.692 322.938 355.88C328.45 351.355 334.489 347.206 339.633 342.274C340.04 341.884 340.933 341.108 340.813 340.469C340.439 338.467 328.452 325.966 328.482 323.705Z"/>
	<defs>
		<linearGradient id="gradient_6" gradientUnits="userSpaceOnUse" x1="343.76413" y1="261.61346" x2="343.20721" y2="208.92485">
			<stop offset="0" stop-color="#494849"/>
			<stop offset="1" stop-color="#A3A2A2"/>
		</linearGradient>
	</defs>
	<path fill="url(#gradient_6)" d="M326.535 211.214C326.923 210.884 327.076 210.648 327.239 210.175C327.632 209.035 329.568 209.833 330.623 209.773C332.63 209.657 334.567 209.371 336.592 209.372C342.024 209.376 356.472 210.742 360.509 208.384L360.525 243.038C360.527 248.897 360.773 254.866 360.492 260.71C360.468 260.714 360.444 260.714 360.421 260.722C355.331 262.52 340.429 261.434 334.258 261.421C332.027 261.416 329.682 261.917 327.477 261.679C326.859 261.113 326.807 260.629 326.551 259.842C326.333 254.316 326.534 248.705 326.535 243.171L326.535 211.214Z"/>
	<path fill="#FDFDFD" d="M153.738 153.712C158.823 153.447 163.985 153.622 169.078 153.624L196.711 153.637C200.085 158.737 204.283 163.532 208.045 168.376L230.468 197.253L300.55 287.53L318.227 310.277C321.655 314.676 325.416 319.05 328.482 323.705C328.452 325.966 340.439 338.467 340.813 340.469C340.933 341.108 340.04 341.884 339.633 342.274C334.489 347.206 328.45 351.355 322.938 355.88C320.73 357.692 318.409 359.445 316.546 361.623L316.163 361.724L316.15 361.738C314.002 359.209 304.603 346.09 302.845 345.475C301.447 344.122 300.224 342.196 299.025 340.636L291.112 330.377L261.156 291.686L212.244 228.494L196.766 208.503C193.849 204.735 190.634 200.993 188.067 196.981L188.014 357.511L153.738 357.5L153.738 153.712Z"/>
</svg>
