<?xml version="1.0" encoding="utf-8" ?>
<svg xmlns="http://www.w3.org/2000/svg" xmlns:xlink="http://www.w3.org/1999/xlink" width="280" height="280">
	<path fill="#F13D31" d="M0 0L280 0L280 280L0 280L0 0Z"/>
	<path fill="#FAAFAD" d="M85.6443 73.2978C93.334 62.0319 108.784 53.9638 121.992 51.4938C142.464 47.6651 166.955 50.1127 184.444 62.0969C193.56 68.3435 200.758 77.6704 204.833 87.9135C206.348 91.7225 207.434 95.7853 208.709 99.6873C196.586 99.6995 184.361 99.3944 172.251 99.7618C167.896 90.4449 162.966 84.8995 153.183 81.3443C143.274 77.7432 131.195 78.8268 121.766 83.2679C115.461 86.2372 110.264 91.7874 107.885 98.3781C106.737 101.557 106.669 104.764 105.975 108.01C105.743 107.952 105.511 107.884 105.291 107.786C103.28 106.895 101.255 105.185 99.6332 103.721C93.1634 97.8819 89.0159 90.8522 87.1362 82.3441C86.6422 80.1079 86.4402 75.1006 85.701 73.417C85.6833 73.3767 85.6632 73.3376 85.6443 73.2978Z"/>
	<path fill="#FAAFAD" d="M179.753 168.306C187.302 172.217 194.045 181.067 196.584 189.097C197.558 192.179 198.433 195.62 198.91 198.819C199.17 200.567 198.75 204.015 199.589 205.451C191.315 215.189 180.98 221.689 168.61 224.932C165.028 225.871 161.394 226.879 157.725 227.404C139.631 229.997 116.618 227.192 100.785 217.885C84.0831 208.067 75.9097 194.696 71.1486 176.262C83.8358 176.258 96.6279 175.933 109.304 176.318C109.985 177.62 110.491 179.068 111.085 180.416Q111.371 181.054 111.687 181.677Q112.004 182.301 112.351 182.908Q112.698 183.515 113.075 184.104Q113.452 184.693 113.857 185.262Q114.262 185.832 114.695 186.381Q115.128 186.93 115.587 187.457Q116.047 187.984 116.532 188.488Q117.017 188.991 117.526 189.47Q118.035 189.95 118.567 190.403Q119.1 190.856 119.654 191.283Q120.208 191.709 120.782 192.108Q121.356 192.507 121.95 192.877Q122.543 193.246 123.154 193.586Q123.765 193.927 124.392 194.236Q125.019 194.546 125.66 194.824Q126.302 195.102 126.956 195.348C136.925 199.178 152.829 199.219 162.628 194.785C170.044 191.43 176.294 184.741 178.113 176.699C178.696 174.124 178.716 170.891 179.68 168.482C179.704 168.423 179.729 168.365 179.753 168.306Z"/>
	<path fill="#FEFEFE" d="M85.6443 73.2978C85.6632 73.3376 85.6833 73.3767 85.701 73.417C86.4402 75.1006 86.6422 80.1079 87.1362 82.3441C89.0159 90.8522 93.1634 97.8819 99.6332 103.721C101.255 105.185 103.28 106.895 105.291 107.786C105.511 107.884 105.743 107.952 105.975 108.01C109.197 110.683 113.006 112.103 116.834 113.691C126.907 117.869 138.027 119.917 148.652 122.26C151.744 122.942 154.789 123.824 157.871 124.55C161.647 125.44 165.492 126.032 169.232 127.082C182.207 130.726 195.238 137.693 202.736 149.229Q203.458 150.329 204.111 151.471Q204.765 152.613 205.346 153.794Q205.928 154.974 206.437 156.187Q206.945 157.401 207.378 158.644Q207.81 159.886 208.166 161.153Q208.522 162.42 208.799 163.706Q209.076 164.993 209.274 166.294Q209.472 167.594 209.589 168.905C210.649 180.545 208.62 191.433 202.296 201.366C201.44 202.711 200.596 204.217 199.589 205.451C198.75 204.015 199.17 200.567 198.91 198.819C198.433 195.62 197.558 192.179 196.584 189.097C194.045 181.067 187.302 172.217 179.753 168.306C174.182 165.148 168.533 162.154 162.422 160.154C141 153.145 109.728 151.656 92.1175 137.909C82.7445 130.592 77.636 120.344 76.2085 108.635C74.7581 96.7401 78.2273 82.812 85.6443 73.2978Z"/>
</svg>
