<?xml version="1.0" encoding="utf-8" ?>
<svg xmlns="http://www.w3.org/2000/svg" xmlns:xlink="http://www.w3.org/1999/xlink" width="1000" height="1000">
	<path fill="#FEFEFE" d="M0 0L1000 0L1000 1000L0 1000L0 0Z"/>
	<path d="M876.537 446.012C894.92 446.129 911.742 451.624 925.651 463.933Q926.985 465.104 928.259 466.339Q929.533 467.574 930.745 468.871Q931.956 470.168 933.101 471.524Q934.247 472.88 935.323 474.29Q936.4 475.701 937.406 477.164Q938.411 478.626 939.342 480.137Q940.274 481.647 941.129 483.202Q941.984 484.757 942.761 486.353Q943.539 487.948 944.236 489.581Q944.932 491.213 945.547 492.877Q946.163 494.542 946.694 496.235Q947.226 497.929 947.673 499.646Q948.12 501.364 948.481 503.101Q948.842 504.839 949.116 506.592Q949.391 508.345 949.578 510.11Q949.765 511.875 949.864 513.647C950.869 532.834 944.734 551.666 931.74 565.965C923.081 575.493 913.501 584.4 904.391 593.51L853.057 644.844L697.235 800.661L606.604 891.292L580.112 917.813C573.849 924.081 567.718 930.811 560.6 936.125C548.37 945.257 534.456 949.262 519.373 949.974C519.179 949.986 518.984 950.007 518.789 950.011Q517.12 950.036 515.452 949.982Q513.784 949.929 512.12 949.798Q510.456 949.666 508.801 949.458Q507.145 949.249 505.5 948.964Q503.856 948.678 502.227 948.316Q500.598 947.954 498.987 947.516Q497.376 947.078 495.788 946.566Q494.2 946.054 492.637 945.468Q491.074 944.882 489.54 944.224Q488.007 943.565 486.505 942.836Q485.004 942.107 483.538 941.309Q482.073 940.511 480.646 939.645Q479.219 938.779 477.834 937.848Q476.449 936.917 475.109 935.922Q473.769 934.927 472.477 933.87Q471.185 932.814 469.944 931.698Q468.621 930.521 467.357 929.279Q466.094 928.038 464.894 926.735Q463.694 925.432 462.559 924.072Q461.425 922.711 460.36 921.296Q459.295 919.881 458.301 918.414Q457.308 916.948 456.388 915.434Q455.468 913.92 454.625 912.363Q453.782 910.805 453.017 909.208Q452.251 907.61 451.566 905.977Q450.882 904.343 450.279 902.678Q449.676 901.012 449.156 899.319Q448.636 897.626 448.201 895.909Q447.766 894.192 447.417 892.455Q447.068 890.719 446.805 888.967Q446.543 887.215 446.367 885.453Q446.192 883.69 446.104 881.921Q446.001 880.159 445.986 878.393Q445.97 876.628 446.042 874.864Q446.114 873.1 446.272 871.342Q446.431 869.584 446.676 867.835Q446.922 866.087 447.253 864.353Q447.584 862.619 448 860.903Q448.417 859.188 448.917 857.495Q449.418 855.802 450.001 854.136Q450.585 852.47 451.25 850.834Q451.915 849.199 452.66 847.598Q453.405 845.998 454.228 844.436Q455.051 842.874 455.95 841.355Q456.849 839.836 457.822 838.363Q458.795 836.89 459.84 835.466Q460.884 834.043 461.998 832.673Q463.111 831.303 464.291 829.99C472.909 820.47 482.505 811.561 491.594 802.478L541.956 752.12L696.166 597.914L788.56 505.515L815.416 478.629C821.783 472.259 828.03 465.423 835.233 459.985C847.362 450.829 861.518 446.714 876.537 446.012Z"/>
	<path d="M805.035 50.0233Q806.714 49.9915 808.393 50.0387Q810.072 50.086 811.747 50.2123Q813.422 50.3385 815.089 50.5435Q816.756 50.7485 818.411 51.0317Q820.067 51.3149 821.707 51.6758Q823.348 52.0367 824.969 52.4744Q826.591 52.9121 828.19 53.4256Q829.789 53.9392 831.362 54.5275Q832.936 55.1157 834.479 55.7774Q836.023 56.4391 837.534 57.1728Q839.045 57.9064 840.52 58.7104Q841.994 59.5144 843.43 60.3869Q844.865 61.2594 846.257 62.1985Q847.65 63.1376 848.997 64.1413Q850.344 65.1449 851.642 66.2108Q852.94 67.2767 854.186 68.4026Q855.503 69.5828 856.759 70.8266Q858.016 72.0703 859.21 73.3746Q860.403 74.6788 861.531 76.0404Q862.659 77.402 863.719 78.8176Q864.778 80.2331 865.766 81.6992Q866.755 83.1654 867.669 84.6785Q868.584 86.1916 869.423 87.748Q870.262 89.3044 871.023 90.9002Q871.784 92.4961 872.466 94.1277Q873.147 95.7592 873.747 97.4223Q874.347 99.0854 874.865 100.776Q875.382 102.467 875.815 104.181Q876.249 105.895 876.597 107.629Q876.945 109.362 877.207 111.111Q877.469 112.859 877.645 114.619Q877.82 116.378 877.909 118.144Q878.012 119.926 878.025 121.711Q878.039 123.496 877.963 125.279Q877.887 127.062 877.723 128.839Q877.558 130.617 877.305 132.383Q877.052 134.15 876.711 135.902Q876.37 137.654 875.942 139.387Q875.514 141.12 875 142.829Q874.485 144.538 873.887 146.22Q873.288 147.901 872.606 149.55Q871.924 151.2 871.161 152.813Q870.397 154.426 869.554 156Q868.711 157.573 867.79 159.102Q866.87 160.631 865.874 162.112Q864.878 163.594 863.81 165.023Q862.741 166.453 861.602 167.827Q860.464 169.202 859.258 170.518C843.848 187.217 826.966 202.976 810.885 219.058L716.53 313.419L430.742 599.203L251.796 778.15L196.942 833.023C187.08 842.886 177.317 853.943 166.469 862.694C154.372 872.453 139.427 877.35 124.019 877.965C104.958 877.95 87.7221 872.243 73.4689 859.284Q72.1715 858.109 70.9334 856.872Q69.6953 855.634 68.5194 854.337Q67.3435 853.041 66.2326 851.688Q65.1218 850.335 64.0787 848.929Q63.0356 847.524 62.0627 846.068Q61.0899 844.613 60.1896 843.112Q59.2893 841.611 58.4638 840.067Q57.6383 838.524 56.8896 836.941Q56.1408 835.359 55.4706 833.742Q54.8005 832.125 54.2104 830.477Q53.6204 828.829 53.112 827.154Q52.6036 825.479 52.178 823.781Q51.7524 822.083 51.4107 820.366Q51.0689 818.649 50.8118 816.918Q50.5548 815.187 50.383 813.444Q50.2112 811.702 50.1251 809.954C49.2325 790.43 55.6137 771.741 68.9042 757.294C84.2427 740.621 101.078 724.953 117.111 708.919L211.2 614.832L496.563 329.474L676.181 149.859L730.486 95.5334C740.449 85.5525 750.284 74.3437 761.25 65.5166C773.966 55.2805 788.887 50.6425 805.035 50.0233Z"/>
</svg>
